<svg width="25" height="25" viewBox="0 0 25 25" fill="none" xmlns="http://www.w3.org/2000/svg">
<g clip-path="url(#clip0_111_289)">
<path d="M23.8084 7.04972C23.5316 6.02172 22.7211 5.21118 21.6931 4.93441C19.815 4.42041 12.3027 4.42041 12.3027 4.42041C12.3027 4.42041 4.79036 4.42041 2.91228 4.91464C1.90405 5.19141 1.07374 6.02172 0.796966 7.04972C0.302734 8.9278 0.302734 12.8224 0.302734 12.8224C0.302734 12.8224 0.302734 16.7367 0.796966 18.595C1.07374 19.623 1.88428 20.4335 2.91228 20.7103C4.81013 21.2243 12.3027 21.2243 12.3027 21.2243C12.3027 21.2243 19.815 21.2243 21.6931 20.7301C22.7211 20.4533 23.5316 19.6427 23.8084 18.6147C24.3026 16.7367 24.3026 12.8421 24.3026 12.8421C24.3026 12.8421 24.3224 8.9278 23.8084 7.04972Z" fill="#FF0000"/>
<path d="M9.91016 16.4201L16.1572 12.8221L9.91016 9.22412V16.4201Z" fill="white"/>
</g>
<defs>
<clipPath id="clip0_111_289">
<rect x="0.302734" y="0.820312" width="24" height="24" rx="6" fill="white"/>
</clipPath>
</defs>
</svg>
